<?xml version="1.0" encoding="UTF-8" standalone="no"?>
<svg
   viewBox="0 0 244235.41 253331.91"
   version="1.1"
   id="svg12"
   sodipodi:docname="powerbtn.svg"
   inkscape:export-filename="powerbtn_white.svg"
   inkscape:export-xdpi="96"
   inkscape:export-ydpi="96"
   width="244235.41"
   height="253331.91"
   xmlns:inkscape="http://www.inkscape.org/namespaces/inkscape"
   xmlns:sodipodi="http://sodipodi.sourceforge.net/DTD/sodipodi-0.dtd"
   xmlns="http://www.w3.org/2000/svg"
   xmlns:svg="http://www.w3.org/2000/svg">
  <defs
     id="defs16" />
  <sodipodi:namedview
     id="namedview14"
     pagecolor="#505050"
     bordercolor="#eeeeee"
     borderopacity="1"
     inkscape:showpageshadow="0"
     inkscape:pageopacity="0"
     inkscape:pagecheckerboard="0"
     inkscape:deskcolor="#505050"
     showgrid="false" />
  <!--! Font Awesome Pro 6.4.0 by @fontawesome - https://fontawesome.com License - https://fontawesome.com/license (Commercial License) Copyright 2023 Fonticons, Inc. -->
  <path
     style="fill:#ffffff;stroke-width:1.41421"
     d="m -9624.6928,-3356.0395 c -8.6202,-1.5129 -16.2029,-6.9256 -20.9025,-14.9207 l -3.9673,-6.7492 -0.3851,-117.8185 c -0.2662,-81.4274 0.089,-119.579 1.1497,-123.5183 2.0264,-7.5256 11.3092,-17.4175 19.1578,-20.4149 13.3463,-5.0971 28.8443,0.1006 36.9876,12.4048 l 3.9012,5.8945 0.4224,119.6049 c 0.2951,83.5639 -0.044,121.21 -1.1245,124.9316 -4.1196,14.1866 -19.7326,23.3072 -35.2393,20.5858 z"
     id="path315"
     inkscape:export-filename="test.svg"
     inkscape:export-xdpi="96"
     inkscape:export-ydpi="96" />
  <path
     style="fill:#ffffff;stroke-width:1.41421"
     d="m -9638.2489,-3147.995 c -83.2262,-6.5145 -158.1056,-57.7296 -195.255,-133.5478 -33.4226,-68.2125 -32.5486,-146.7134 2.3855,-214.2534 11.8143,-22.8414 24.7896,-40.5071 43.67,-59.4561 18.6343,-18.702 23.8692,-21.8708 36.0795,-21.8392 16.8711,0.044 30.3456,13.3852 30.3752,30.0755 0.02,11.4933 -2.937,16.4558 -19.5292,32.7698 -44.5276,43.7809 -63.0028,101.5392 -51.7047,161.6422 6.5465,34.8253 24.2075,67.1668 50.6435,92.74 34.1522,33.0376 75.2351,49.7495 122.2588,49.7333 81.5962,-0.028 150.7406,-53.4513 171.6335,-132.6093 4.1244,-15.6262 4.3801,-18.0964 4.4261,-42.7475 0.041,-21.9724 -0.4421,-28.2658 -3.016,-39.2917 -8.1689,-34.9925 -26.0809,-66.2383 -51.7398,-90.2551 -13.2233,-12.377 -17.4426,-18.4791 -18.7346,-27.095 -2.9232,-19.4931 15.6206,-38.0369 35.1138,-35.1137 8.7295,1.309 14.9767,5.5779 30.318,20.7173 33.9258,33.4792 56.7559,75.2685 67.1722,122.9549 2.8646,13.114 3.2401,18.6503 3.2137,47.3762 -0.033,35.7828 -1.6259,46.9757 -10.5995,74.4786 -25.7486,78.9157 -93.8852,140.596 -175.2932,158.6833 -13.8756,3.0829 -47.7435,6.9901 -55.0062,6.346 -1.2482,-0.1108 -8.6334,-0.6995 -16.4116,-1.3083 z"
     id="path317" />
</svg>
